{
	"asset":{
		"generator":"Khronos glTF Blender I/O v4.5.48",
		"version":"2.0"
	},
	"scene":0,
	"scenes":[
		{
			"name":"Scene",
			"nodes":[
				0
			]
		}
	],
	"nodes":[
		{
			"mesh":0,
			"name":"Cube.001"
		}
	],
	"materials":[
		{
			"doubleSided":true,
			"name":"Captain_Wood",
			"pbrMetallicRoughness":{
				"metallicFactor":0,
				"roughnessFactor":0.6499999761581421
			}
		}
	],
	"meshes":[
		{
			"name":"Cube.002",
			"primitives":[
				{
					"attributes":{
						"POSITION":0,
						"NORMAL":1,
						"TEXCOORD_0":2
					},
					"indices":3,
					"material":0
				}
			]
		}
	],
	"accessors":[
		{
			"bufferView":0,
			"componentType":5126,
			"count":26136,
			"max":[
				2.249999761581421,
				0.9000000953674316,
				1.2999999523162842
			],
			"min":[
				-2.25,
				-0.7499998807907104,
				-1.2999998331069946
			],
			"type":"VEC3"
		},
		{
			"bufferView":1,
			"componentType":5126,
			"count":26136,
			"type":"VEC3"
		},
		{
			"bufferView":2,
			"componentType":5126,
			"count":26136,
			"type":"VEC2"
		},
		{
			"bufferView":3,
			"componentType":5123,
			"count":39204,
			"type":"SCALAR"
		}
	],
	"bufferViews":[
		{
			"buffer":0,
			"byteLength":313632,
			"byteOffset":0,
			"target":34962
		},
		{
			"buffer":0,
			"byteLength":313632,
			"byteOffset":313632,
			"target":34962
		},
		{
			"buffer":0,
			"byteLength":209088,
			"byteOffset":627264,
			"target":34962
		},
		{
			"buffer":0,
			"byteLength":78408,
			"byteOffset":836352,
			"target":34963
		}
	],
	"buffers":[
		{
			"byteLength":914760,
			"uri":"new_test4.bin"
		}
	]
}
